<?xml version="1.0" encoding="utf-8"?>
<?xml-stylesheet type="text/xsl" href="rss1.xsl"?>
<rss version="2.0" xmlns:atom="http://www.w3.org/2005/Atom" xmlns:content="http://purl.org/rss/1.0/modules/content/" xmlns:dc="http://purl.org/dc/elements/1.1/" xmlns:media="http://search.yahoo.com/mrss/">
<channel>
 <title>Getty</title>
 <link>http://www.gettyimg.com/</link>
 <atom:link href="http://www.gettyimg.com/" rel="self" type="application/rss+xml" />

 
                <item>
                <title><![CDATA[【MTV HD】Los Hermanos - Anna Júlia ( MTV LAB Freak )]]></title>
                <link><![CDATA[https://sharemania.us/threads/los-hermanos-anna-j%C3%BAlia-mtv-lab-freak.226377/]]></link>
                <description><![CDATA[<article>
<blockquote class="messageText SelectQuoteContainer ugc baseHtml">
<img src="https://i.imgur.com/AtYEymN.png" class="bbCodeImage LbImage" alt="[​IMG]" data-url="https://i.imgur.com/AtYEymN.png" style=""> <div data-s9e-mediaembed="googledrive" style="display:inline-block;width:100%;max-width:640px"><div style="overflow:hidden;position:relative;padding-bottom:75%"><iframe allowfullscreen="" scrolling="no" src="//drive.google.com/file/d/1I60RsVzrtXnN-x7RkOrau7ik3qEwhGdb/preview" style="border:0;height:100%;left:0;position:absolute;width:100%"></iframe></div></div>
<div class="messageTextEndMarker">&nbsp;</div>
</blockquote>
</article>]]></description>
                <author><![CDATA[encaralhei]]></author>
                </item>

                
                <item>
                <title><![CDATA[【MTV HD】Avril Lavigne - Hot (Legendado) ( MTV LAB SAP )]]></title>
                <link><![CDATA[https://sharemania.us/threads/avril-lavigne-hot-legendado-mtv-lab-sap.226376/]]></link>
                <description><![CDATA[<article>
<blockquote class="messageText SelectQuoteContainer ugc baseHtml">
<img src="https://i.imgur.com/i0qswL4.png" class="bbCodeImage LbImage" alt="[​IMG]" data-url="https://i.imgur.com/i0qswL4.png" style=""> <div data-s9e-mediaembed="googledrive" style="display:inline-block;width:100%;max-width:640px"><div style="overflow:hidden;position:relative;padding-bottom:75%"><iframe allowfullscreen="" scrolling="no" src="//drive.google.com/file/d/18TRuxwgtrby0Z0VemYrInrR82M5jbqbn/preview" style="border:0;height:100%;left:0;position:absolute;width:100%"></iframe></div></div>
<div class="messageTextEndMarker">&nbsp;</div>
</blockquote>
</article>]]></description>
                <author><![CDATA[encaralhei]]></author>
                </item>

                
                <item>
                <title><![CDATA[【HD Live Performances】WEB-RiP - Lorde - Sizget Festival (2023-08-14) - 1080p]]></title>
                <link><![CDATA[https://sharemania.us/threads/lorde-sizget-festival-2023-08-14-1080p.226374/]]></link>
                <description><![CDATA[<article>
<blockquote class="messageText SelectQuoteContainer ugc baseHtml">
Hello,<br>
<br>
Interesting set. Youtube livestream rip. Unfortunately, average quality. Worth it, tho.<br>
<br>
Enjoy.<br>
<br>
<a href="https://ibb.co/k5Ds0tG" target="_blank" class="externalLink" rel="nofollow"><img src="https://i.ibb.co/34F9WnT/Sziget-Festival-2023-Livestream-2023-08-14-12-57-JZoi-Lphx-XC0-lorde-mp4-thumbs-2023-08-14-19-18-27.jpg" class="bbCodeImage LbImage" alt="[​IMG]" data-url="https://i.ibb.co/34F9WnT/Sziget-Festival-2023-Livestream-2023-08-14-12-57-JZoi-Lphx-XC0-lorde-mp4-thumbs-2023-08-14-19-18-27.jpg"></a><br>
<br>
<div class="ToggleTriggerAnchor bbCodeSpoilerContainer">
<button type="button" class="button bbCodeSpoilerButton ToggleTrigger Tooltip JsOnly" data-target="> .SpoilerTarget"><span>Spoiler: <span class="SpoilerTitle">Media Info</span></span></button>
<div class="SpoilerTarget bbCodeSpoilerText">
<div class="bbCodeBlock bbCodeCode">
<div class="type">Code:</div>
<pre>General
Complete name                  : Sziget Festival 2023 Livestream 2023-08-14 12_57 [JZoiLphxXC0]-lorde.mp4
Format                         : MPEG-4
Format profile                 : Base Media
Codec ID                       : isom (isom/iso2/avc1/mp41)
File size                      : 1.11 GiB
Duration                       : 1 h 8 min
Overall bit rate               : 2 313 kb/s
Writing application            : Lavf58.76.100

Video
ID                             : 1
Format                         : AVC
Format/Info                    : Advanced Video Codec
Format profile                 : High@L4
Format settings                : CABAC / 1 Ref Frames
Format settings, CABAC         : Yes
Format settings, Reference fra : 1 frame
Codec ID                       : avc1
Codec ID/Info                  : Advanced Video Coding
Duration                       : 1 h 8 min
Bit rate                       : 2 177 kb/s
Width                          : 1 920 pixels
Height                         : 1 080 pixels
Display aspect ratio           : 16:9
Frame rate mode                : Constant
Frame rate                     : 30.000 FPS
Color space                    : YUV
Chroma subsampling             : 4:2:0
Bit depth                      : 8 bits
Scan type                      : Progressive
Bits/(Pixel*Frame)             : 0.035
Stream size                    : 1.05 GiB (94%)
Color range                    : Limited
Color primaries                : BT.709
Transfer characteristics       : BT.709
Matrix coefficients            : BT.709
Codec configuration box        : avcC

Audio
ID                             : 2
Format                         : AAC LC
Format/Info                    : Advanced Audio Codec Low Complexity
Codec ID                       : mp4a-40-2
Duration                       : 1 h 8 min
Source duration                : 1 h 8 min
Bit rate mode                  : Constant
Bit rate                       : 128 kb/s
Channel(s)                     : 2 channels
Channel layout                 : L R
Sampling rate                  : 44.1 kHz
Frame rate                     : 43.066 FPS (1024 SPF)
Compression mode               : Lossy
Stream size                    : 63.1 MiB (6%)
Source stream size             : 63.1 MiB (6%)
Default                        : Yes
Alternate group                : 1
mdhd_Duration                  : 4135209
</pre>
</div></div>
</div><br>
<div class="bbCodeBlock bbCodeVfcHH HiddenContent">
<div class="attribution type">Hidden Content:</div>
<blockquote>You must reply before you can see the hidden data contained here.</blockquote>
</div>
<div class="messageTextEndMarker">&nbsp;</div>
</blockquote>
</article>]]></description>
                <author><![CDATA[wasper]]></author>
                </item>

                </channel></rss>